<svg id="Layer_1" data-name="Layer 1" xmlns="http://www.w3.org/2000/svg" viewBox="0 0 150 150"><defs><style>.cls-1{fill:#283149;}.cls-2{fill:#6b7ed9;}.cls-3{fill:#4d66d2;}.cls-4{fill:#dbedff;}.cls-5{fill:#8896e0;}.cls-6{fill:#b5dcff;}.cls-7{fill:#ffd500;}.cls-8{fill:#fbc700;}.cls-9{fill:#00d3b5;}.cls-10{fill:#00b8a0;}.cls-11{fill:#5ce2c5;}.cls-12{fill:#8bcaff;}.cls-13{fill:#ff636e;}.cls-14{fill:#ff4654;}.cls-15{fill:#ff9ba1;}.cls-16{fill:#60b9fe;}.cls-17{fill:#1ca8ff;}</style></defs><circle class="cls-1" cx="74.97" cy="75" r="75"/><path class="cls-2" d="M34.44,48.4h5.7l.22.22V55.1l-.43.4-3.19,1-1.68,4.77-.84.38v-13Z"/><path class="cls-2" d="M35,93.61l5,2.41.31.74v22l-.38.72H34.75l-.53-.72V94Z"/><path class="cls-3" d="M37.35,48.4H34.44l-.22.22v13l.84-.38,1.68-4.77.61-.19Z"/><path class="cls-3" d="M37.35,94.73,35,93.61l-.78.37v24.8l.53.72h2.6Z"/><path class="cls-4" d="M39,45.73a1.47,1.47,0,0,0,1.1-.48l11.5-12.36a1.5,1.5,0,1,0-2.2-2.05L37.89,43.2A1.5,1.5,0,0,0,38,45.33,1.48,1.48,0,0,0,39,45.73Z"/><path class="cls-5" d="M28.74,122.09v-.49a2.83,2.83,0,0,1,2.83-2.82H43a2.82,2.82,0,0,1,2.82,2.82v.49A2.82,2.82,0,0,1,43,124.91H31.57A2.83,2.83,0,0,1,28.74,122.09Z"/><circle class="cls-6" cx="37.29" cy="46.05" r="4.01"/><path class="cls-7" d="M40,25.14,62.36,28.5A4.83,4.83,0,0,1,66.42,34a1.58,1.58,0,0,1-1.78,1.33L35.84,31a1.57,1.57,0,0,1-1.32-1.79A4.83,4.83,0,0,1,40,25.14Z"/><path class="cls-8" d="M44.27,30.9a5.67,5.67,0,0,1,3.88-4.54L40,25.14a4.83,4.83,0,0,0-5.5,4.06A1.57,1.57,0,0,0,35.84,31l8.82,1.32A1.84,1.84,0,0,1,44.27,30.9Z"/><path class="cls-9" d="M59.82,67.15l-11.75,16L29.86,79.57l-2,.76L27.15,80l7.07-18.4.22-.56a4.16,4.16,0,0,1,2.85-1.19c1.69,0,6.78.6,6.78.6l15,5.3Z"/><path class="cls-10" d="M29.86,79.57l5.25,1.05c2.58-6.83,5.57-14.57,7.79-20.26-1.61-.17-4.43-.45-5.61-.47a4.16,4.16,0,0,0-2.85,1.19l-.22.56L27.15,80l.75.29Z"/><path class="cls-11" d="M36.2,56.59c1.14-2.65,9.33-1.68,18.27,2.15a48.26,48.26,0,0,1,9.9,5.58l-.2.71-4.35,2.12h-.76a53,53,0,0,0-6.58-3.35C43.54,60,35.35,59,34.22,61.64Z"/><path class="cls-9" d="M36.2,56.59l-2,5c.69-1.62,4-1.88,8.56-1,.54-1.39,1-2.66,1.48-3.78a2.31,2.31,0,0,1,1.19-1.13C40.57,54.68,36.93,54.89,36.2,56.59Z"/><path class="cls-11" d="M27.15,80.05c1.06-2.68,9.28-1.94,18.31,1.66.77.3,1.52.62,2.24.94l.6.9L47,89.13,30.33,84.35l-4.39,1.13-.64-.33Z"/><path class="cls-9" d="M27.15,80.05l-1.85,5.1.64.33,4.39-1.13,3.05.87c.74-2,1.55-4.14,2.4-6.36C31.17,78.05,27.8,78.4,27.15,80.05Z"/><path class="cls-4" d="M25.3,85.15c1.06-2.67,9.28-1.93,18.31,1.66,1.06.42,2.07.86,3,1.32l.41.55,1.23,9.69-.51.67a54.21,54.21,0,0,1-8-2.52C30.72,92.93,24.23,87.83,25.3,85.15Z"/><path class="cls-6" d="M33.85,84c-4.56-.8-7.9-.45-8.55,1.19-.76,1.92,2.34,5.08,7.48,8-1-1.3-1.44-2.47-1.08-3.39.62-1.72,1.36-3.7,2.15-5.83Z"/><path class="cls-2" d="M115.5,48.4h-5.7l-.21.22V55.1l.42.4,3.2,1,1.67,4.77.85.38v-13Z"/><path class="cls-3" d="M112.86,48.4H109.8l-.21.22V55.1l.42.4,2.85.88v-8Z"/><path class="cls-2" d="M114.94,93.61l-5,2.41-.3.74v22l.38.72h5.22l.54-.72V94Z"/><path class="cls-3" d="M112.86,94.6l-3,1.42-.3.74v22l.38.72h2.89Z"/><path class="cls-4" d="M111,45.73a1.5,1.5,0,0,1-1.1-.48L98.35,32.89a1.5,1.5,0,1,1,2.2-2.05l11.5,12.36a1.49,1.49,0,0,1-.07,2.12,1.47,1.47,0,0,1-1,.41Z"/><path class="cls-5" d="M121.2,122.09v-.49a2.82,2.82,0,0,0-2.82-2.82H106.94a2.83,2.83,0,0,0-2.83,2.82v.49a2.83,2.83,0,0,0,2.83,2.82h11.44A2.82,2.82,0,0,0,121.2,122.09Z"/><path class="cls-2" d="M35,122.09v-.49a2.82,2.82,0,0,1,2.82-2.82H31.57a2.83,2.83,0,0,0-2.83,2.82v.49a2.83,2.83,0,0,0,2.83,2.82h6.22A2.82,2.82,0,0,1,35,122.09Z"/><path class="cls-2" d="M110.34,122.09v-.49a2.82,2.82,0,0,1,2.82-2.82h-6.22a2.83,2.83,0,0,0-2.83,2.82v.49a2.83,2.83,0,0,0,2.83,2.82h6.22A2.82,2.82,0,0,1,110.34,122.09Z"/><path class="cls-5" d="M97.36,120.34l-4.63-7.46-1.32.18L88,115.23l-.45,1,4.6,7.4a2.82,2.82,0,0,0,3.89.91l.41-.26a2.81,2.81,0,0,0,.91-3.89Z"/><path class="cls-2" d="M94.73,122.07l-4.6-7.4.44-1,1.11-.7-.27,0L88,115.23l-.45,1,4.6,7.4a2.82,2.82,0,0,0,3.89.91l.41-.26a2.73,2.73,0,0,0,.86-.83,2.79,2.79,0,0,1-2.58-1.33Z"/><path class="cls-5" d="M57.22,112.88l-4.64,7.46a2.82,2.82,0,0,0,.91,3.89l.41.26a2.84,2.84,0,0,0,3.9-.91l4.59-7.4v-1.35l-3.57-1.77Z"/><path class="cls-5" d="M57.22,112.88l-4.64,7.46a2.82,2.82,0,0,0,.91,3.89l.41.26a2.84,2.84,0,0,0,3.9-.91l4.59-7.4v-1.35l-3.57-1.77Z"/><path class="cls-2" d="M55.29,121.11l4.64-7.46H60l-1.22-.6-1.6-.18-4.64,7.46a2.82,2.82,0,0,0,.91,3.89l.41.26a2.81,2.81,0,0,0,2.08.36,2.83,2.83,0,0,1-.69-3.74Z"/><circle class="cls-6" cx="112.66" cy="46.05" r="4.01"/><path class="cls-12" d="M37.3,46.05a4,4,0,0,1,2-3.46,4.05,4.05,0,0,0-2-.54,4,4,0,1,0,0,8,4.05,4.05,0,0,0,2-.54A4,4,0,0,1,37.3,46.05Z"/><path class="cls-12" d="M112.67,46.05a4,4,0,0,1,2-3.46,4.05,4.05,0,0,0-2-.54,4,4,0,1,0,0,8,4.05,4.05,0,0,0,2-.54A4,4,0,0,1,112.67,46.05Z"/><path class="cls-7" d="M109.92,25.14,87.58,28.5A4.83,4.83,0,0,0,83.52,34a1.59,1.59,0,0,0,1.79,1.33L114.1,31a1.57,1.57,0,0,0,1.32-1.79A4.83,4.83,0,0,0,109.92,25.14Z"/><path class="cls-8" d="M93.85,32.48a5.47,5.47,0,0,1,2.2-5.25L87.58,28.5A4.83,4.83,0,0,0,83.52,34a1.59,1.59,0,0,0,1.79,1.33l9.63-1.45A1.75,1.75,0,0,1,93.85,32.48Z"/><path class="cls-13" d="M90.12,67.15l11.75,16,18.22-3.63,2,.76.76-.29-7.07-18.4-.23-.56a4.15,4.15,0,0,0-2.84-1.19c-1.7,0-6.79.6-6.79.6l-15,5.3Z"/><path class="cls-14" d="M108.29,81.92a34.52,34.52,0,0,0-11.8-18.11l-5.61,2-.76,1.36,11.75,16Z"/><path class="cls-15" d="M113.74,56.59c-1.14-2.65-9.33-1.68-18.26,2.15a48.36,48.36,0,0,0-9.91,5.58l.2.71,4.35,2.12h.76a53.76,53.76,0,0,1,6.58-3.35c8.94-3.84,17.13-4.8,18.27-2.16Z"/><path class="cls-13" d="M91.64,60.55a43.26,43.26,0,0,0-6.07,3.77l.2.71,4.35,2.12h.76a53,53,0,0,1,5.94-3.07,34,34,0,0,0-5.18-3.53Z"/><path class="cls-15" d="M122.8,80.05c-1.07-2.68-9.28-1.94-18.32,1.66-.77.3-1.51.62-2.24.94l-.6.9L103,89.13l16.64-4.78L124,85.48l.64-.33Z"/><path class="cls-13" d="M107.88,80.47c-1.11.37-2.25.78-3.4,1.24-.77.3-1.51.62-2.24.94l-.6.9L103,89.13l6.28-1.8a34.47,34.47,0,0,0-1.38-6.86Z"/><path class="cls-4" d="M124.64,85.15c-1.06-2.67-9.27-1.93-18.31,1.66-1,.42-2.07.86-3,1.32l-.41.55-1.23,9.69.51.67a53.85,53.85,0,0,0,8-2.52C119.22,92.93,125.71,87.83,124.64,85.15Z"/><path class="cls-6" d="M103.28,88.13l-.41.55-1.23,9.69.51.67a52,52,0,0,0,6.69-2,35,35,0,0,0,.58-6.35,35.85,35.85,0,0,0-.34-4.89c-.91.31-1.82.65-2.75,1s-2.07.86-3,1.32Z"/><path class="cls-16" d="M75,119.12A28.43,28.43,0,1,1,103.4,90.69,28.46,28.46,0,0,1,75,119.12Z"/><path class="cls-17" d="M53.78,90.69A28.45,28.45,0,0,1,78.59,62.5,28.84,28.84,0,0,0,75,62.27a28.43,28.43,0,1,0,0,56.85,28.84,28.84,0,0,0,3.62-.23A28.46,28.46,0,0,1,53.78,90.69Z"/><circle class="cls-4" cx="74.96" cy="90.69" r="22.36" transform="translate(-26.56 150.17) rotate(-80.79)"/><path class="cls-6" d="M59.84,90.69A22.39,22.39,0,0,1,78.59,68.63a22.77,22.77,0,0,0-3.62-.3,22.37,22.37,0,0,0,0,44.73,22.77,22.77,0,0,0,3.62-.3A22.4,22.4,0,0,1,59.84,90.69Z"/></svg>